<svg width="512" height="512" viewBox="0 0 512 512" fill="none" xmlns="http://www.w3.org/2000/svg">
<rect width="512" height="512" rx="95" fill="#14CC48"/>
<path d="M407.5 205.5H272.834V171.833C272.834 158.44 278.154 145.595 287.625 136.125C297.095 126.654 309.94 121.333 323.334 121.333C327.798 121.333 332.08 119.56 335.237 116.403C338.394 113.246 340.167 108.965 340.167 104.5C340.167 100.036 338.394 95.754 335.237 92.5971C332.08 89.4403 327.798 87.6667 323.334 87.6667C306.48 87.7015 290.025 92.7951 276.1 102.288C262.174 111.781 251.419 125.236 245.227 140.911C230.994 122.426 210.221 110.097 187.178 106.455C164.135 102.814 140.572 108.138 121.334 121.333C121.334 121.333 151.516 196.41 240.177 161.919C239.636 165.199 239.298 168.511 239.167 171.833V205.5H104.5C100.036 205.5 95.7542 207.274 92.5974 210.43C89.4405 213.587 87.667 217.869 87.667 222.333V407.5C87.667 411.964 89.4405 416.246 92.5974 419.403C95.7542 422.56 100.036 424.333 104.5 424.333H407.5C411.965 424.333 416.247 422.56 419.403 419.403C422.56 416.246 424.334 411.964 424.334 407.5V222.333C424.334 217.869 422.56 213.587 419.403 210.43C416.247 207.274 411.965 205.5 407.5 205.5ZM121.334 390.667V340.167C134.727 340.167 147.572 345.487 157.043 354.958C166.513 364.428 171.834 377.273 171.834 390.667H121.334ZM121.334 289.667V239.167H171.834C171.834 252.56 166.513 265.405 157.043 274.876C147.572 284.346 134.727 289.667 121.334 289.667V289.667ZM256 340.167C249.342 340.167 242.833 338.192 237.296 334.493C231.76 330.794 227.445 325.535 224.896 319.384C222.348 313.232 221.682 306.463 222.981 299.932C224.28 293.401 227.486 287.402 232.194 282.694C236.903 277.986 242.902 274.779 249.432 273.48C255.963 272.181 262.732 272.848 268.884 275.396C275.036 277.944 280.294 282.259 283.993 287.796C287.693 293.332 289.667 299.841 289.667 306.5C289.667 315.429 286.12 323.992 279.806 330.306C273.493 336.62 264.929 340.167 256 340.167ZM390.667 390.667H340.167C340.167 377.273 345.488 364.428 354.958 354.958C364.429 345.487 377.274 340.167 390.667 340.167V390.667ZM390.667 289.667C377.274 289.667 364.429 284.346 354.958 274.876C345.488 265.405 340.167 252.56 340.167 239.167H390.667V289.667Z" fill="white"/>
</svg>
